<svg xmlns="http://www.w3.org/2000/svg" width="400" height="400" viewBox="0 0 400 400" role="img" aria-label="VeriClaim"><rect width="400" height="400" fill="#FFFFFF"/><g transform="translate(23.736 72.42) scale(0.2297)"><path fill="#09285C" transform="translate(-257 -431)" d="M1017.5 455.055C1021.72 455.481 1042.44 463.537 1047.6 465.427L1120.71 492.47C1180.85 515.184 1241.31 537.078 1302.05 558.146C1294.06 568.724 1261.49 601.281 1251.03 611.086C1244.9 609.773 1237.14 607.137 1231.18 604.873C1161.51 578.441 1090.41 554.602 1021.19 527.092C1005.82 531.786 986.088 540.519 970.064 545.926C907.64 566.989 844.481 593.422 782.285 614.168C781.523 626.463 782.093 646.44 782.097 659.162L782.107 746.002C782.125 769.143 782.006 792.283 781.748 815.422C781.528 837.751 780.565 877.304 786.044 898.552C808.661 986.264 899.757 1056.78 971.334 1105.63C987.449 1116.62 1006.71 1126.82 1023.14 1137.31C1052.74 1119.24 1081.35 1099.61 1108.86 1078.5C1169.78 1030.99 1246.45 963.817 1256.45 883.019C1259.28 864.182 1258.21 826.732 1258.41 806.189C1269.08 795.039 1316.63 741.502 1323.78 737.75L1325.01 738.566C1326.35 746.331 1325.89 773.795 1325.67 783.08C1324.73 822.952 1328.96 880.012 1318.92 917.841C1282.94 1053.42 1135.56 1148.99 1023.84 1216.71C948.585 1175.95 864.26 1118.56 803.931 1057.62C770.661 1024.01 739.185 976.536 724.741 931.323C711.28 889.188 713.242 845.22 713.403 801.416L713.751 710.388C713.879 664.453 712.709 615.623 713.853 570.029C731.483 560.183 777.001 544.819 797.756 537.167L953.046 479.989C963.697 476.13 1010.01 460.223 1017.5 455.055Z"/><path fill="#126CEB" transform="translate(-257 -431)" d="M1356.49 549.781C1358.89 553.43 1358.21 638.4 1358.25 650.823C1343.11 668.293 1322.04 689.214 1305.87 706.406C1261.64 753.855 1216.49 800.44 1170.45 846.136C1143.89 872.71 1117.17 899.118 1090.28 925.358C1067.88 947.554 1043.18 972.649 1019.98 993.666C1006.17 981.286 989.8 963.38 976.516 949.744L881.811 851.5C872.869 842.136 863.533 832.642 855.053 822.891C859.433 817.755 868.438 809.295 873.456 804.219C884.031 793.614 894.339 782.746 904.37 771.626C911.02 776.946 927.876 795.938 935.013 803.203C963.659 832.363 990.798 863.695 1020.38 891.928C1099.4 814.854 1177.35 736.689 1254.2 657.455C1283.07 627.64 1310.39 596.049 1339.68 566.573C1345.23 560.982 1350.49 554.88 1356.49 549.781Z"/><path fill="#126CEB" transform="translate(-257 -431)" d="M1298.26 1352.51C1300.17 1352.27 1302.09 1352.09 1304.01 1351.97C1330.38 1350.13 1345.52 1357.35 1364.94 1374.38L1364.96 1355.6C1377.87 1355.23 1390.78 1355.17 1403.69 1355.42C1404.45 1373.04 1403.92 1394.75 1403.96 1412.63C1404.15 1447.43 1404.11 1482.23 1403.86 1517.03C1395.52 1516.97 1387.03 1517.13 1378.72 1517.83C1362.86 1519.18 1365.08 1507.83 1365.31 1496.75C1361.82 1500.13 1358.41 1502.82 1354.66 1505.87C1306.44 1539.93 1247.1 1513.78 1232.83 1457.87C1227.12 1435.05 1230.66 1410.89 1242.69 1390.67C1256.34 1368.18 1273.53 1358.66 1298.26 1352.51ZM1325.47 1484.91C1352.39 1480.73 1370.78 1455.47 1366.48 1428.57C1362.18 1401.67 1336.82 1383.39 1309.94 1387.82C1283.24 1392.22 1265.11 1417.37 1269.39 1444.1C1273.66 1470.82 1298.73 1489.06 1325.47 1484.91Z"/><path fill="#126CEB" transform="translate(-257 -431)" d="M1698.85 1351.42C1716.79 1351.11 1733.83 1354.62 1747.05 1367.57C1768.19 1388.28 1764.28 1423.58 1764.33 1450.43L1764.53 1517.3L1726.05 1517.39C1725.3 1483.59 1727.06 1448.75 1725.36 1414.97C1725.11 1410.05 1722.09 1399.58 1718.76 1396.22C1708.1 1385.35 1682.75 1381.79 1671.52 1393.54C1654.72 1411.12 1657.35 1440.69 1657.35 1463.29C1657.35 1481.43 1657.75 1499.59 1657.71 1517.75C1645.41 1518.09 1631.94 1517.85 1619.55 1517.88C1618.06 1494.54 1619.24 1457.15 1619.23 1432.75C1619.46 1419.66 1620.34 1408.11 1611.32 1397.22C1605.8 1390.48 1597.7 1386.39 1589 1385.93C1579.49 1385.48 1570.63 1389.31 1563.92 1395.97C1559.07 1400.79 1555.64 1406.86 1554.03 1413.52C1550.95 1425.78 1551.93 1448.49 1552.03 1461.93L1552.39 1517.73C1539.82 1518.15 1525.43 1517.81 1512.72 1517.8C1511.15 1467.99 1512.81 1406.38 1513.22 1355.66C1526.1 1355.37 1538.98 1355.27 1551.86 1355.34C1552.13 1361.45 1552.01 1368.42 1552.04 1374.61C1565.7 1358.68 1581.32 1350.88 1602.49 1351.7C1624.55 1352.55 1636.47 1362.48 1650.43 1377.96C1664.4 1362.36 1677.5 1354.08 1698.85 1351.42Z"/><path fill="#126CEB" transform="translate(-257 -431)" d="M1019.99 1291.34C1058.54 1288.55 1097.44 1300.73 1119 1334.7C1121.79 1339.09 1129.66 1350.81 1128.57 1355.62C1124.15 1357.85 1099.7 1364.61 1092.64 1366.95C1090.95 1364.11 1089.16 1361.09 1087.3 1358.37C1077.21 1343.24 1061.38 1332.88 1043.48 1329.69C1024.32 1326.3 1004.16 1329.98 988.194 1341.35C971.802 1353.16 960.802 1371.03 957.636 1390.98C954.182 1411.91 958.88 1435.76 971.439 1453.04C983.037 1469.18 1000.76 1479.84 1020.45 1482.52C1041.22 1485.51 1059.69 1479.37 1076.24 1467.02C1084.4 1459.07 1086.96 1454.88 1092.45 1444.88C1104.93 1449.23 1117.88 1452.28 1130.07 1456.79C1126.27 1466.17 1121.16 1474.98 1114.88 1482.93C1078.25 1528.75 1002.31 1532.39 957.984 1496.27C934.229 1476.65 919.182 1448.44 916.113 1417.78C909.396 1351.19 953.588 1298.1 1019.99 1291.34Z"/><path fill="#09285C" transform="translate(-257 -431)" d="M567.606 1352.37C572.68 1351.89 577.775 1351.67 582.872 1351.72C602.985 1351.92 624.769 1360.63 638.611 1375.3C658.842 1396.73 661.48 1420.83 661.126 1448.65C648.724 1448.88 635.482 1448.13 622.897 1448.04C593.718 1447.9 564.539 1447.93 535.361 1448.11C535.995 1450.53 536.742 1452.93 537.602 1455.29C549.199 1486.87 579.427 1497.08 608.396 1480.48C613.472 1477.58 617.164 1470.52 623.502 1467.99C627.623 1467.8 628.827 1468.73 632.748 1470.47C638.86 1473.12 651.882 1476.2 654.376 1480.34C654.602 1482.76 654.183 1484.34 652.822 1486.35C626.376 1525.9 569.036 1530.93 530.952 1506.54C482.258 1475.35 483.107 1395.45 532.281 1365.19C544.866 1357.44 553.331 1355.15 567.606 1352.37ZM535.721 1420.29L584.649 1420.03C595.663 1419.98 612.951 1420.44 623.452 1419.73C615.752 1396.43 599.797 1382.6 574.423 1384.38C550.277 1389.69 542.783 1396.39 535.721 1420.29Z"/><path fill="#09285C" transform="translate(-257 -431)" d="M462.713 1292.25C477.022 1292.38 491.331 1292.39 505.64 1292.31C496.839 1312.35 488.258 1336.42 480.169 1357.03C459.231 1410.35 438.729 1463.83 418.665 1517.48C402.524 1517.44 386.383 1517.27 370.244 1516.97L310.499 1359.72C301.524 1337.51 293.562 1315.75 284.275 1293.41C296.348 1292.66 316.568 1293.45 329.026 1293.57C349.564 1352.47 376.612 1414.48 395.895 1473.57C404.486 1447.6 417.551 1414.2 426.481 1388.4C431.172 1374.85 457.304 1299.42 462.713 1292.25Z"/><path fill="#126CEB" transform="translate(-257 -431)" d="M1159.53 1288.99C1168 1288.08 1189.34 1288.79 1198.41 1289.01L1198.42 1438.99C1198.45 1464.29 1199.46 1492.32 1198.68 1517.18C1185.68 1517.24 1172.69 1517.21 1159.69 1517.09C1158.48 1443.4 1158.77 1362.84 1159.53 1288.99Z"/><path fill="#09285C" transform="translate(-257 -431)" d="M774.315 1352.4C806.478 1350.29 796.741 1365.21 796.343 1392.64C769.294 1389.65 743.885 1387.97 735.259 1422.35C732.35 1433.95 733.617 1448.39 733.699 1460.43C733.992 1479.28 734.014 1498.14 733.767 1516.99C721.402 1517.66 707.176 1517.43 694.763 1517.41C693.511 1506.68 694.251 1477.3 694.192 1464.7L693.844 1355.87C706.693 1355.64 719.544 1355.62 732.393 1355.79C732.333 1365.05 732.224 1374 732.668 1383.27C746.579 1362.88 749.91 1357.56 774.315 1352.4Z"/><path fill="#09285C" transform="translate(-257 -431)" d="M830.116 1355.02C841.84 1354.39 858.374 1354.87 870.458 1354.86L870.291 1464.68C870.272 1475.1 870.829 1508.95 869.512 1517.48C856.603 1517.76 843.69 1517.8 830.779 1517.59C830.548 1464.8 829.143 1407.46 830.116 1355.02Z"/><path fill="#126CEB" transform="translate(-257 -431)" d="M1443.95 1355.41C1456.49 1355.23 1469.02 1355.25 1481.55 1355.47C1482.17 1371.25 1483.5 1511.78 1480.45 1517.72C1467.81 1517.83 1455.17 1517.76 1442.53 1517.52C1442.41 1513.1 1442.05 1497.48 1442.4 1493.85C1444.05 1476.82 1439.47 1362.73 1443.95 1355.41Z"/><path fill="#126CEB" transform="translate(-257 -431)" d="M1457.49 1285.25C1465.96 1283.46 1474.73 1286.38 1480.43 1292.89C1486.13 1299.4 1487.87 1308.48 1484.98 1316.63C1482.08 1324.79 1475.01 1330.74 1466.48 1332.2C1453.65 1334.4 1441.42 1325.92 1438.97 1313.14C1436.52 1300.35 1444.75 1287.95 1457.49 1285.25Z"/><path fill="#09285C" transform="translate(-257 -431)" d="M843.917 1286.57C856.374 1282.99 869.371 1290.2 872.923 1302.67C876.474 1315.13 869.231 1328.11 856.757 1331.64C844.324 1335.15 831.393 1327.93 827.853 1315.51C824.313 1303.08 831.499 1290.14 843.917 1286.57Z"/></g></svg>
